<mxfile host="Electron" agent="Mozilla/5.0 (Windows NT 10.0; Win64; x64) AppleWebKit/537.36 (KHTML, like Gecko) draw.io/24.7.17 Chrome/128.0.6613.36 Electron/32.0.1 Safari/537.36" version="24.7.17">
  <diagram name="Page-1" id="ENLwGxZUaumKH4mhbuD6">
    <mxGraphModel dx="3860" dy="2467" grid="1" gridSize="10" guides="1" tooltips="1" connect="1" arrows="1" fold="1" page="1" pageScale="1" pageWidth="827" pageHeight="1169" math="0" shadow="0">
      <root>
        <mxCell id="0" />
        <mxCell id="1" parent="0" />
        <mxCell id="bLPJszj05LEg_3gyPMTT-1" value="Expansion Algorithm" style="swimlane;whiteSpace=wrap;html=1;" vertex="1" parent="1">
          <mxGeometry x="-1200" y="-20" width="1100" height="950" as="geometry" />
        </mxCell>
        <mxCell id="odC4mh9_WQV0dlQ940GW-52" value="" style="shape=image;verticalLabelPosition=bottom;labelBackgroundColor=default;verticalAlign=top;aspect=fixed;imageAspect=0;image=data:image/png,iVBORw0KGgoAAAANSUhEUgAAAhsAAAIkCAYAAAC3C+nFAAAAAXNSR0IArs4c6QAAAARnQU1BAACxjwv8YQUAAAAJcEhZcwAADsMAAA7DAcdvqGQAAA7nSURBVHhe7d0xbttIH8bhzNflAFu5CxAgN/EJtkmxZ3CTIlWQKkUan2GLNHsC3yRAgHSu9gAp9UkTERs5skiLfK0h+TwAMQTWG/sPy/IPY4oqm60XAAAh/9uvAAARYgMAiBIbAECU2AAAosQGABAlNgCAKLEBAESJDQAgSmwAAFFiAwCIEhsAQJTYAACiet+IrZSyPwMAODTk/VztbAAAUYN3NoaUyxyYp23maZt52maetq15HjsbAECU2AAAosQGABAlNgCAKLEBAESJDQAgSmwAAFFiAwCIEhsAQJTYAACixAYAECU2AIAosQEARIkNACBKbAAAUWIDAIgSGwBAlNgAAKLEBgAQJTYAgCixAQBEiQ0AIEpsAABRYgMAiBIbAECU2AAAosQGABAlNgCAKLEBAESJDQAgSmwAAFFiAwCIEhsAQJTYAACixAYAECU2AIAosQEARIkNACBKbAAAUWIDAIgSGwBAlNgAAKLEBgAQJTYAgCixAQBEiQ0AIEpsAABRYgMAiBIbAEBU2Wztz48qpezPAAAO9WREZWcDAIgavLMxpFzmoJvny6s3dZ27t9+/1nVp3x/ztMk8bTNP29Y8j50NACBKbAAAUWIDAIgSGwBAlNgAAKLEBgAQJTYAgCixAQBEualXSHezrYem/rxu6tU287TNPG0zT9ueMo+djYDHQgMA1khsTGgXGUIDAA6JjYmIDAA4TmyMZDcDAE4TGyOIDADoJzYClvL29QAwBbExoV1kCA0AOCQ2JiIyAOA4sTFCt5MhNADgcWIDAIgSGwBAlNgAAKLEBgAQJTYAgCixAQBEiQ0AIEpsAABRYgMAiBIbAECU2AAAosQGABAlNgCAKLEBAESJDQAgqmy29udHlVLq2vNhs9HN8+XVm7qO8fb71/3ZeOd+Pd3XsLTvj3naZJ62madta57HzgYAECU2AIAosQEARIkNACDKBaIz5wLRtpmnbeZpm3na9pR57GwAAFFiAwCIEhsAQJTYAACixAYAECU2AIAosQEARIkNACBKbAAAUWIDAIgafLtyAICH3K4cALi41b4Rm3naZJ62dfMs7Y0MP3/7UNe5e/f6Y12XNo83zmzTU57f7GwAAFFiAwCIEhsAQJTYAACixAYAECU2AIAosQEARIkNACDKTb1mzjxtW+o8yZssdTc+esyUn9tNvdo25U29+h5XQ4z9OtzUC6ABU/xCANojNoAmCA1YLrEBAESJDeDi7GrAsokNAFZpd8HnUw7OJzaAizq2q+GJHZZFbAAX488nsA5iA2iKXQ1YHrEBXIQ/n8B6iA0AIEpsAM/OrgYt2D0OTx1MR2wAz8qTOHMhOqYjNoCLs6tBywTHeGIDeDaetJkrj91xxAZwUXY1mAvBcT6xATyLY0/UQoPnsnus9R3kiA0A2BoSHXY3ziM2gDi7GsyJx+b0xAZwEbsAOXU8ZujHAe0QGwBAlNgAAKLEBgAQJTYA4BeuBZpe2Wztz48qpdS158NmwzxtM0/bunme42r9x57wp/zc3ef4/O1DXefu3euPdV3aPGO/5933eei/cyo2xnwt3b+7xuc3OxsArMLul/2pkOj775xPbACwKl1UPDz6PMeO3lKJDQDoITTGERsAcILQGE9sALBou1g4NxiExjTEBtCk7hfEwwPONfQx5PE2PbEBwKr8GhPHDqYnNgCAKLEBAESJDQAgSmwAAFFiAwCIEhsAQJTYAACixAYAECU2AICostnanx9VStmfAQAc6smIys4GABA1eGdjSLnMQTfPUu5///b717ou7ftjnjZ189zf3tV17q5urutqnjZ183g+aNNT5rGzAQBEiQ0AIEpsAABRYgMAiBIbAECU2AAAosQGABAlNgCAKLEBAESJDQAgSmxMZHfb8FMHAKyV2BjhKTEhOgBYK7FxpnPDQXAAsDZi4wxjg0FwALAmYgMAiBIbF2J3A4C1EBsT+PLqzW8HAPCT2BjhVFgIDgD4SWycYejuheAAALEBAISJDQAgSmwAAFFiI+jUy1tdzwHAWogNACBKbITY1QCAn8QGABAlNgLsagDAf8TGxIQGABwSGxMSGgDwO7ExEaEBAMeJjQkIDQB4nNgYSWgAwGliYwShAQD9xMaZhAYADCM2ziA0AGA4sTEhoQEAvyubrf35UaWUuvZ82Gx085wbBqd2Nc4xNlC6r2dp3x/ztKmb5/72rq5zd3VzXVfztKmbx/NBm54yj50NACBKbAAAUWIDAIgSGwBAlAtEZ84Fom1b6jwuqGyTC0TbtubnNzsbAECU2AAAosQGABAlNgCAKLEBAESJDQAgSmwAAFGD77MBAPCQ+2wAABe32juIftr8qOvcvS8v62qeNnXzLO3nxx032+QOom1b6u/TIfPY2QAAosQGABAlNgCAKLEBAESJDQAgSmwAAFFiAwCIEhsAQJTYAACixAYAECU2AIAosQEARIkNACBKbAAAUWIDAIgSGwBAlNgAAKLEBgAQJTYAgCixAQBEiQ0AIEpsAABRYgMAiBIbAECU2AAAosQGABAlNgCAKLEBAESJDQAgSmwAAFFiAwCIEhsAQJTYAACixAYAECU2AIAosQEARIkNACBKbAAAUWIDAIgSGwBAlNgAAKLEBgAQJTYAgCixAQBEiQ0AIEpsAABRYgMAiBIbAECU2AAAospma39+VCllfwYAcKgnIyo7GwBA1OCdjSHlMgfdPJ82P+o6d+/Ly7qap03dPF9evanr3L39/rWu97d3dZ27q5vrupqnTd08S/v9s8Z57GwAAFFiAwCIEhsAQJTYAACixAYAECU2AIAosQEARIkNmJndvS5OHQCtERswA0+JCdEBtEZsQMPGhIPgAFohNmDBBAfQArEBAESJDZiR3Ru6PTz62N0ALk1swAycCoshwQFwSWIDGjZ090JwAC0TGwBAlNgAAKLEBgAQJTZgAU694sT1HMCliQ2YsV1keGkr0DqxATPQRcXDo49dDaAFYgMWaOhLZgGeg9iABRqy6wHwXMQGLJTgAFohNmDBBAfQArEBM9Bdg3Hs6CM4gEsTGzBzQ6JDcACXJDYAgCixAQsx5E8qAJcgNgCAKLEBAESJDQAgSmxAo3avIHnKq0i84gRoldiAxvVFx5AocfEocEliA2aii4qHB0DrxAYsnF0N4NLEBiyY0ABaIDagUbtQODcWxvy/AFMTG9C4p4SDyABaJDZgJrqQOHUAtEhsAABRYgMAiBIbAECU2AAAosQGABAlNgCAKLEBAESJDQAgSmwAAFFls7U/P6qUsj8DADjUkxGVnQ0AIGrwzsaQcpmDbp5Pmx91nbv35WVdzdOmbp6l/fzc397Vde6ubq7rap42dfMs7ednjfPY2QAAosQGABAlNgCAKLEBAESJDQAgSmwAAFFiAwCIEhsAQJTYAACixAYAECU2AIAosQEARIkNACBKbAAAUWIDAIgSGwBAlNgAAKLEBgAQJTYAgCixAQBEiQ0AIEpsAABRYgMAiBIbAECU2AAAosQGABAlNgCAKLEBAESJDQAgSmwAAFFiAwCIEhsAQJTYAACixAYAECU2AIAosQEARIkNACBKbAAAUWIDAIgSGwBAlNgAAKLEBgAQJTYAgCixAQBEiQ0AIEpsAABRYgMAiBIbAECU2AAAospma39+VCllfwYAcKgnIyo7GwBA1OCdjSHlMgfdPJ82P+o6d+/Ly7qap03dPEv7+TFPm8zTtjXPY2cDAIgSGwBAlNgAAKLEBgAQJTYAgCixAQBEiQ0AIEpsAABRYgMAiBIbAECU2AAAosQGABAlNgCAKLEBAESJDQAgSmwAAFFiAwCIEhsAQJTYAACixAYAECU2AIAosQEARIkNACBKbAAAUWIDAIgSGwBAlNgAAKLEBgAQJTYAgCixAQBEiQ0AIEpsAABRYgMAiBIbAECU2AAAosQGABAlNgCAKLEBAESJDQAgSmwAAFFiAwCIEhsAQJTYAACixAYAECU2AIAosQEARIkNACBKbAAAUWIDAIgqm639+VGllP0ZAMChnoyo7GwAAFGDdzaGlMscmKdt5mlbN8/97V1d5+7q5rquX169qevcvf3+ta5//fNvXefu7z//qKvngzY9ZR47GwBAlNgAAKLEBgAQJTYAgCixAQBEiQ0AIEpsAABRYgMAiBIbAGG7m22dOmDpxAZAyNCYEB0sndgAmJh4gENiA2BCIgN+JzYAJiI04DixATCBvtDYvbPssQPWQGwABPVFhfBgDcQGABAlNgBGeuxPKHYr4CexAQBEiQ2AALsa8B+xATCCl7tCP7EBELYLkscOWAOxARAwNChEB2sgNgAaIDhYMrEB0AjBwVKJDQAgSmwABP16O/LuOMXuBkskNgACToVFX3DA0ogNgAsQHKyJ2AAAosQGABAlNgCAKLEBAESJDYARHrvQs+8lrF7iypqIDYCGeJUKSyQ2AEIe272wq8HaiA2AkU7tRuzC4uHxGLsaLJXYAACixAbABMbuStjVYMnEBsBEzgmG3f8jNFg6sQEwoS4e+gJCZLAmYgMg5NfweHjAmogNACBKbAAAUWIDAIgSGwBAlNgAAKLEBgAQJTYAgCixAQBElc3W/vyoUsr+DADgUE9GVHY2AICowTsbQ8plDszTNvO0rZvn/vaurnN3dXNd18/fPtR17t69/ljXv/75t65z9/eff9TV80GbnjKPnQ0AIEpsAABRYgMAiBIbAECU2AAAosQGABAlNgCAKLEBAESJDQAgSmwAAFFiAwCIEhsAQJTYAACixAYAECU2AIAosQEARIkNACBKbAAAUWIDAIgSGwBAlNgAAKLEBgAQJTYAgCixAQBEiQ0AIEpsAABRYgMAiBIbAECU2AAAosQGABAlNgCAKLEBAESJDQAgSmwAAFFiAwCIEhsAQJTYAACixAYAECU2AIAosQEARIkNACBKbAAAUWIDAIgSGwBAlNgAAKLEBgAQJTYAgCixAQBEiQ0AIKpstvbnR5VS9mcAAId6MqKyswEARPXubAAAjGFnAwCIEhsAQJTYAACixAYAECU2AIAosQEARIkNACBKbAAAUWIDAIgSGwBAlNgAAKLEBgAQ9OLF/wGhE+y/Q6jn+wAAAABJRU5ErkJggg==;" parent="bLPJszj05LEg_3gyPMTT-1" vertex="1">
          <mxGeometry x="285" y="90" width="539" height="548" as="geometry" />
        </mxCell>
        <mxCell id="odC4mh9_WQV0dlQ940GW-53" value="Create a new atmos region with a single atmos zone of size 1x1" style="rounded=0;whiteSpace=wrap;html=1;fillColor=#fff2cc;strokeColor=#d6b656;" parent="bLPJszj05LEg_3gyPMTT-1" vertex="1">
          <mxGeometry x="85" y="129" width="120" height="101" as="geometry" />
        </mxCell>
        <mxCell id="odC4mh9_WQV0dlQ940GW-54" value="" style="endArrow=none;dashed=1;html=1;rounded=0;" parent="bLPJszj05LEg_3gyPMTT-1" target="odC4mh9_WQV0dlQ940GW-53" edge="1">
          <mxGeometry width="50" height="50" relative="1" as="geometry">
            <mxPoint x="373" y="176" as="sourcePoint" />
            <mxPoint x="405" y="39" as="targetPoint" />
          </mxGeometry>
        </mxCell>
        <mxCell id="odC4mh9_WQV0dlQ940GW-55" value="Create a new atmos zone and join the region of the adjacent turf" style="rounded=0;whiteSpace=wrap;html=1;fillColor=#fff2cc;strokeColor=#d6b656;" parent="bLPJszj05LEg_3gyPMTT-1" vertex="1">
          <mxGeometry x="75" y="313.5" width="120" height="101" as="geometry" />
        </mxCell>
        <mxCell id="odC4mh9_WQV0dlQ940GW-56" value="" style="endArrow=none;dashed=1;html=1;rounded=0;" parent="bLPJszj05LEg_3gyPMTT-1" target="odC4mh9_WQV0dlQ940GW-55" edge="1">
          <mxGeometry width="50" height="50" relative="1" as="geometry">
            <mxPoint x="371" y="287" as="sourcePoint" />
            <mxPoint x="405" y="-31" as="targetPoint" />
          </mxGeometry>
        </mxCell>
        <mxCell id="odC4mh9_WQV0dlQ940GW-57" value="Create a new atmos zone, join the 2 adjacent regions together" style="rounded=0;whiteSpace=wrap;html=1;fillColor=#fff2cc;strokeColor=#d6b656;" parent="bLPJszj05LEg_3gyPMTT-1" vertex="1">
          <mxGeometry x="75" y="479" width="120" height="101" as="geometry" />
        </mxCell>
        <mxCell id="odC4mh9_WQV0dlQ940GW-58" value="" style="endArrow=none;dashed=1;html=1;rounded=0;" parent="bLPJszj05LEg_3gyPMTT-1" target="odC4mh9_WQV0dlQ940GW-57" edge="1">
          <mxGeometry width="50" height="50" relative="1" as="geometry">
            <mxPoint x="526" y="391" as="sourcePoint" />
            <mxPoint x="175" y="276" as="targetPoint" />
          </mxGeometry>
        </mxCell>
        <mxCell id="odC4mh9_WQV0dlQ940GW-59" value="Merge all adjacent atmos zones into a single atmos zone belonging to the same region" style="rounded=0;whiteSpace=wrap;html=1;fillColor=#fff2cc;strokeColor=#d6b656;" parent="bLPJszj05LEg_3gyPMTT-1" vertex="1">
          <mxGeometry x="905" y="509" width="120" height="101" as="geometry" />
        </mxCell>
        <mxCell id="odC4mh9_WQV0dlQ940GW-60" value="" style="endArrow=none;dashed=1;html=1;rounded=0;" parent="bLPJszj05LEg_3gyPMTT-1" target="odC4mh9_WQV0dlQ940GW-59" edge="1">
          <mxGeometry width="50" height="50" relative="1" as="geometry">
            <mxPoint x="629" y="545" as="sourcePoint" />
            <mxPoint x="195" y="485" as="targetPoint" />
          </mxGeometry>
        </mxCell>
        <mxCell id="odC4mh9_WQV0dlQ940GW-61" value="Merge the pink and green zones into a single atmos zone which is part of the same region." style="rounded=0;whiteSpace=wrap;html=1;fillColor=#fff2cc;strokeColor=#d6b656;" parent="bLPJszj05LEg_3gyPMTT-1" vertex="1">
          <mxGeometry x="885" y="329" width="120" height="101" as="geometry" />
        </mxCell>
        <mxCell id="odC4mh9_WQV0dlQ940GW-62" value="" style="endArrow=none;dashed=1;html=1;rounded=0;" parent="bLPJszj05LEg_3gyPMTT-1" target="odC4mh9_WQV0dlQ940GW-61" edge="1">
          <mxGeometry width="50" height="50" relative="1" as="geometry">
            <mxPoint x="583" y="238" as="sourcePoint" />
            <mxPoint x="559" y="719" as="targetPoint" />
          </mxGeometry>
        </mxCell>
        <mxCell id="odC4mh9_WQV0dlQ940GW-63" value="Expand the green atmos zone" style="rounded=0;whiteSpace=wrap;html=1;fillColor=#fff2cc;strokeColor=#d6b656;" parent="bLPJszj05LEg_3gyPMTT-1" vertex="1">
          <mxGeometry x="885" y="139" width="120" height="101" as="geometry" />
        </mxCell>
        <mxCell id="odC4mh9_WQV0dlQ940GW-64" value="" style="endArrow=none;dashed=1;html=1;rounded=0;" parent="bLPJszj05LEg_3gyPMTT-1" target="odC4mh9_WQV0dlQ940GW-63" edge="1">
          <mxGeometry width="50" height="50" relative="1" as="geometry">
            <mxPoint x="733" y="234" as="sourcePoint" />
            <mxPoint x="935" y="445" as="targetPoint" />
          </mxGeometry>
        </mxCell>
        <mxCell id="odC4mh9_WQV0dlQ940GW-65" value="Naive Algorithm:&lt;div&gt;&lt;br&gt;Create a list of all the turfs contained by the adjacent nodes.&lt;br&gt;&lt;div&gt;Create a single atmos region.&lt;/div&gt;&lt;div&gt;Create a single store of all the adjacent gasses.&lt;/div&gt;&lt;div&gt;&lt;br&gt;&lt;/div&gt;&lt;/div&gt;&lt;div&gt;Convert these groups of turfs into appropriate atmos zones and spread the shared atmos between them all.&lt;/div&gt;" style="rounded=0;whiteSpace=wrap;html=1;fillColor=#e1d5e7;strokeColor=#9673a6;verticalAlign=top;" parent="bLPJszj05LEg_3gyPMTT-1" vertex="1">
          <mxGeometry x="292" y="649" width="240" height="190" as="geometry" />
        </mxCell>
        <mxCell id="odC4mh9_WQV0dlQ940GW-66" value="Complicated Algorithm:&lt;div&gt;&lt;br&gt;Attempt to expand zones into your tile, allowing them to expand into another zone if they completely consume it by expanding in the direction of your tile.&lt;/div&gt;" style="rounded=0;whiteSpace=wrap;html=1;fillColor=#e1d5e7;strokeColor=#9673a6;verticalAlign=top;" parent="bLPJszj05LEg_3gyPMTT-1" vertex="1">
          <mxGeometry x="575" y="649" width="240" height="190" as="geometry" />
        </mxCell>
        <mxCell id="bLPJszj05LEg_3gyPMTT-2" value="Class Structure" style="swimlane;whiteSpace=wrap;html=1;" vertex="1" parent="1">
          <mxGeometry x="-80" y="-20" width="860" height="740" as="geometry" />
        </mxCell>
        <mxCell id="odC4mh9_WQV0dlQ940GW-4" style="edgeStyle=orthogonalEdgeStyle;rounded=0;orthogonalLoop=1;jettySize=auto;html=1;" parent="bLPJszj05LEg_3gyPMTT-2" source="odC4mh9_WQV0dlQ940GW-2" target="odC4mh9_WQV0dlQ940GW-32" edge="1">
          <mxGeometry relative="1" as="geometry">
            <mxPoint x="480" y="408" as="targetPoint" />
          </mxGeometry>
        </mxCell>
        <mxCell id="odC4mh9_WQV0dlQ940GW-2" value="Atmos Zone" style="rounded=0;whiteSpace=wrap;html=1;" parent="bLPJszj05LEg_3gyPMTT-2" vertex="1">
          <mxGeometry x="420" y="258" width="120" height="60" as="geometry" />
        </mxCell>
        <mxCell id="odC4mh9_WQV0dlQ940GW-5" style="edgeStyle=orthogonalEdgeStyle;rounded=0;orthogonalLoop=1;jettySize=auto;html=1;" parent="bLPJszj05LEg_3gyPMTT-2" source="odC4mh9_WQV0dlQ940GW-3" target="odC4mh9_WQV0dlQ940GW-2" edge="1">
          <mxGeometry relative="1" as="geometry" />
        </mxCell>
        <mxCell id="odC4mh9_WQV0dlQ940GW-3" value="Atmos Region" style="rounded=0;whiteSpace=wrap;html=1;" parent="bLPJszj05LEg_3gyPMTT-2" vertex="1">
          <mxGeometry x="420" y="108" width="120" height="60" as="geometry" />
        </mxCell>
        <mxCell id="odC4mh9_WQV0dlQ940GW-16" value="Atmos System" style="swimlane;fontStyle=1;align=center;verticalAlign=top;childLayout=stackLayout;horizontal=1;startSize=26;horizontalStack=0;resizeParent=1;resizeParentMax=0;resizeLast=0;collapsible=1;marginBottom=0;whiteSpace=wrap;html=1;" parent="bLPJszj05LEg_3gyPMTT-2" vertex="1">
          <mxGeometry x="100" y="288" width="240" height="138" as="geometry" />
        </mxCell>
        <mxCell id="odC4mh9_WQV0dlQ940GW-18" value="" style="line;strokeWidth=1;fillColor=none;align=left;verticalAlign=middle;spacingTop=-1;spacingLeft=3;spacingRight=3;rotatable=0;labelPosition=right;points=[];portConstraint=eastwest;strokeColor=inherit;" parent="odC4mh9_WQV0dlQ940GW-16" vertex="1">
          <mxGeometry y="26" width="240" height="8" as="geometry" />
        </mxCell>
        <mxCell id="odC4mh9_WQV0dlQ940GW-23" value="+ set_atmos_density(x, y, z, value)" style="text;strokeColor=none;fillColor=none;align=left;verticalAlign=top;spacingLeft=4;spacingRight=4;overflow=hidden;rotatable=0;points=[[0,0.5],[1,0.5]];portConstraint=eastwest;whiteSpace=wrap;html=1;" parent="odC4mh9_WQV0dlQ940GW-16" vertex="1">
          <mxGeometry y="34" width="240" height="26" as="geometry" />
        </mxCell>
        <mxCell id="odC4mh9_WQV0dlQ940GW-19" value="+ get_atmos_region(x, y, z)" style="text;strokeColor=none;fillColor=none;align=left;verticalAlign=top;spacingLeft=4;spacingRight=4;overflow=hidden;rotatable=0;points=[[0,0.5],[1,0.5]];portConstraint=eastwest;whiteSpace=wrap;html=1;" parent="odC4mh9_WQV0dlQ940GW-16" vertex="1">
          <mxGeometry y="60" width="240" height="26" as="geometry" />
        </mxCell>
        <mxCell id="odC4mh9_WQV0dlQ940GW-26" value="+ block_flow(x, y, z)" style="text;strokeColor=none;fillColor=none;align=left;verticalAlign=top;spacingLeft=4;spacingRight=4;overflow=hidden;rotatable=0;points=[[0,0.5],[1,0.5]];portConstraint=eastwest;whiteSpace=wrap;html=1;" parent="odC4mh9_WQV0dlQ940GW-16" vertex="1">
          <mxGeometry y="86" width="240" height="26" as="geometry" />
        </mxCell>
        <mxCell id="odC4mh9_WQV0dlQ940GW-27" value="+ allow_flow(x, y, z)" style="text;strokeColor=none;fillColor=none;align=left;verticalAlign=top;spacingLeft=4;spacingRight=4;overflow=hidden;rotatable=0;points=[[0,0.5],[1,0.5]];portConstraint=eastwest;whiteSpace=wrap;html=1;" parent="odC4mh9_WQV0dlQ940GW-16" vertex="1">
          <mxGeometry y="112" width="240" height="26" as="geometry" />
        </mxCell>
        <mxCell id="odC4mh9_WQV0dlQ940GW-24" value="Square zone&lt;div&gt;Contains turfs&lt;/div&gt;" style="rounded=0;whiteSpace=wrap;html=1;fillColor=#fff2cc;strokeColor=#d6b656;" parent="bLPJszj05LEg_3gyPMTT-2" vertex="1">
          <mxGeometry x="570" y="258" width="120" height="60" as="geometry" />
        </mxCell>
        <mxCell id="odC4mh9_WQV0dlQ940GW-25" value="Collection of zones that are directly atmos accessible." style="rounded=0;whiteSpace=wrap;html=1;fillColor=#fff2cc;strokeColor=#d6b656;" parent="bLPJszj05LEg_3gyPMTT-2" vertex="1">
          <mxGeometry x="570" y="108" width="120" height="60" as="geometry" />
        </mxCell>
        <mxCell id="odC4mh9_WQV0dlQ940GW-46" style="edgeStyle=orthogonalEdgeStyle;rounded=0;orthogonalLoop=1;jettySize=auto;html=1;" parent="bLPJszj05LEg_3gyPMTT-2" source="odC4mh9_WQV0dlQ940GW-32" target="odC4mh9_WQV0dlQ940GW-42" edge="1">
          <mxGeometry relative="1" as="geometry" />
        </mxCell>
        <mxCell id="odC4mh9_WQV0dlQ940GW-49" style="edgeStyle=orthogonalEdgeStyle;rounded=0;orthogonalLoop=1;jettySize=auto;html=1;" parent="bLPJszj05LEg_3gyPMTT-2" source="odC4mh9_WQV0dlQ940GW-32" target="odC4mh9_WQV0dlQ940GW-47" edge="1">
          <mxGeometry relative="1" as="geometry" />
        </mxCell>
        <mxCell id="odC4mh9_WQV0dlQ940GW-32" value="Turf" style="html=1;whiteSpace=wrap;" parent="bLPJszj05LEg_3gyPMTT-2" vertex="1">
          <mxGeometry x="425" y="388" width="110" height="50" as="geometry" />
        </mxCell>
        <mxCell id="odC4mh9_WQV0dlQ940GW-42" value="Closed Turf" style="swimlane;fontStyle=0;childLayout=stackLayout;horizontal=1;startSize=26;fillColor=none;horizontalStack=0;resizeParent=1;resizeParentMax=0;resizeLast=0;collapsible=1;marginBottom=0;whiteSpace=wrap;html=1;" parent="bLPJszj05LEg_3gyPMTT-2" vertex="1">
          <mxGeometry x="320" y="508" width="140" height="52" as="geometry" />
        </mxCell>
        <mxCell id="odC4mh9_WQV0dlQ940GW-43" value="+ adjacent_regions" style="text;strokeColor=none;fillColor=none;align=left;verticalAlign=top;spacingLeft=4;spacingRight=4;overflow=hidden;rotatable=0;points=[[0,0.5],[1,0.5]];portConstraint=eastwest;whiteSpace=wrap;html=1;" parent="odC4mh9_WQV0dlQ940GW-42" vertex="1">
          <mxGeometry y="26" width="140" height="26" as="geometry" />
        </mxCell>
        <mxCell id="odC4mh9_WQV0dlQ940GW-47" value="Open Turf" style="swimlane;fontStyle=0;childLayout=stackLayout;horizontal=1;startSize=26;fillColor=none;horizontalStack=0;resizeParent=1;resizeParentMax=0;resizeLast=0;collapsible=1;marginBottom=0;whiteSpace=wrap;html=1;" parent="bLPJszj05LEg_3gyPMTT-2" vertex="1">
          <mxGeometry x="510" y="508" width="140" height="52" as="geometry" />
        </mxCell>
        <mxCell id="odC4mh9_WQV0dlQ940GW-48" value="+ parent_region" style="text;strokeColor=none;fillColor=none;align=left;verticalAlign=top;spacingLeft=4;spacingRight=4;overflow=hidden;rotatable=0;points=[[0,0.5],[1,0.5]];portConstraint=eastwest;whiteSpace=wrap;html=1;" parent="odC4mh9_WQV0dlQ940GW-47" vertex="1">
          <mxGeometry y="26" width="140" height="26" as="geometry" />
        </mxCell>
      </root>
    </mxGraphModel>
  </diagram>
</mxfile>
